<?xml version="1.0" encoding="UTF-8" standalone="no"?>
<!-- Created with Inkscape (http://www.inkscape.org/) -->

<svg
   xmlns:dc="http://purl.org/dc/elements/1.1/"
   xmlns:cc="http://creativecommons.org/ns#"
   xmlns:rdf="http://www.w3.org/1999/02/22-rdf-syntax-ns#"
   xmlns:svg="http://www.w3.org/2000/svg"
   xmlns="http://www.w3.org/2000/svg"
   xmlns:xlink="http://www.w3.org/1999/xlink"
   xmlns:sodipodi="http://sodipodi.sourceforge.net/DTD/sodipodi-0.dtd"
   xmlns:inkscape="http://www.inkscape.org/namespaces/inkscape"
   sodipodi:docname="poster_zen_python_pt_br.svg"
   id="svg5121"
   version="1.1"
   viewBox="0 0 210 297"
   height="297mm"
   width="210mm"
   inkscape:version="0.92.1 unknown">
  <defs
     id="defs5115" />
  <sodipodi:namedview
     inkscape:window-maximized="1"
     inkscape:window-y="30"
     inkscape:window-x="1920"
     inkscape:window-height="991"
     inkscape:window-width="1920"
     showgrid="false"
     inkscape:current-layer="layer1"
     inkscape:document-units="mm"
     inkscape:cy="-728.6226"
     inkscape:cx="-2209.9092"
     inkscape:zoom="0.22627417"
     inkscape:pageshadow="2"
     inkscape:pageopacity="0.0"
     borderopacity="1.0"
     bordercolor="#666666"
     pagecolor="#ffffff"
     id="base" />
  <metadata
     id="metadata5118">
    <rdf:RDF>
      <cc:Work
         rdf:about="">
        <dc:format>image/svg+xml</dc:format>
        <dc:type
           rdf:resource="http://purl.org/dc/dcmitype/StillImage" />
        <dc:title></dc:title>
      </cc:Work>
    </rdf:RDF>
  </metadata>
  <g
     inkscape:label="Camada 1"
     inkscape:groupmode="layer"
     id="layer1">
    <path
       d="m -333.78575,496.08331 h 877.5715 v -695.16662 h -877.5715 z"
       style="fill:#aad400;fill-opacity:1;fill-rule:nonzero;stroke:none;stroke-width:0.78016061"
       id="path3014"
       inkscape:connector-curvature="0" />
    <text
       xml:space="preserve"
       style="font-style:normal;font-variant:normal;font-weight:normal;font-stretch:normal;font-size:10.58333302px;line-height:125%;font-family:Ubuntu;-inkscape-font-specification:Ubuntu;letter-spacing:0px;word-spacing:0px;fill:#000000;fill-opacity:1;stroke:none;stroke-width:0.26458332px;stroke-linecap:butt;stroke-linejoin:miter;stroke-opacity:1"
       id="text5127"
       transform="translate(-1061.502,-89.220013)"><textPath
         xlink:href="#path54358-6"
         id="textPath55058"><tspan
   style="font-style:normal;font-variant:normal;font-weight:normal;font-stretch:normal;font-size:12.69999981px;font-family:Ubuntu;-inkscape-font-specification:Ubuntu;stroke-width:0.26458332px"
   id="tspan5125"><tspan
   id="tspan5129"
   style="font-style:normal;font-variant:normal;font-weight:500;font-stretch:normal;font-size:12.69999981px;font-family:Ubuntu;-inkscape-font-specification:'Ubuntu Medium'">Bonito</tspan> é melhor que feio. <tspan
   id="tspan5171"
   style="font-style:normal;font-variant:normal;font-weight:500;font-stretch:normal;font-size:12.69999981px;font-family:Ubuntu;-inkscape-font-specification:'Ubuntu Medium'">Explícito</tspan> é melhor que implícito. <tspan
   id="tspan5173"
   style="font-style:normal;font-variant:normal;font-weight:500;font-stretch:normal;font-size:12.69999981px;font-family:Ubuntu;-inkscape-font-specification:'Ubuntu Medium'">Simples</tspan> é melhor que complexo. <tspan
   id="tspan5175"
   style="font-style:normal;font-variant:normal;font-weight:500;font-stretch:normal;font-size:12.69999981px;font-family:Ubuntu;-inkscape-font-specification:'Ubuntu Medium'">Complexo</tspan> é melhor que complicado. <tspan
   id="tspan5177"
   style="font-style:normal;font-variant:normal;font-weight:500;font-stretch:normal;font-size:12.69999981px;font-family:Ubuntu;-inkscape-font-specification:'Ubuntu Medium'">Plano</tspan> é melhor que aninhado. <tspan
   id="tspan5179"
   style="font-style:normal;font-variant:normal;font-weight:500;font-stretch:normal;font-size:12.69999981px;font-family:Ubuntu;-inkscape-font-specification:'Ubuntu Medium'">Esparso</tspan> é melhor que denso. <tspan
   id="tspan5181"
   style="font-style:normal;font-variant:normal;font-weight:500;font-stretch:normal;font-size:12.69999981px;font-family:Ubuntu;-inkscape-font-specification:'Ubuntu Medium'">Legibilidade</tspan> conta. Casos especiais não são especiais o bastante para se <tspan
   id="tspan5183"
   style="font-style:normal;font-variant:normal;font-weight:500;font-stretch:normal;font-size:12.69999981px;font-family:Ubuntu;-inkscape-font-specification:'Ubuntu Medium'">quebrar as regras.</tspan> Embora a <tspan
   id="tspan5185"
   style="font-style:normal;font-variant:normal;font-weight:500;font-stretch:normal;font-size:12.69999981px;font-family:Ubuntu;-inkscape-font-specification:'Ubuntu Medium'">práticidade</tspan> supere o purismo. <tspan
   id="tspan5187"
   style="font-style:normal;font-variant:normal;font-weight:500;font-stretch:normal;font-size:12.69999981px;font-family:Ubuntu;-inkscape-font-specification:'Ubuntu Medium'">Erros</tspan> nunca deveriam passar silenciosamente. A menos que <tspan
   id="tspan5189"
   style="font-style:normal;font-variant:normal;font-weight:500;font-stretch:normal;font-size:12.69999981px;font-family:Ubuntu;-inkscape-font-specification:'Ubuntu Medium'">explicitamente</tspan> silenciados. Ao encarar a ambiguidade, <tspan
   id="tspan5191"
   style="font-style:normal;font-variant:normal;font-weight:500;font-stretch:normal;font-size:12.69999981px;font-family:Ubuntu;-inkscape-font-specification:'Ubuntu Medium'">recuse a tentação de adivinhar.</tspan> Deveria haver <tspan
   id="tspan5193"
   style="font-style:normal;font-variant:normal;font-weight:500;font-stretch:normal;font-size:12.69999981px;font-family:Ubuntu;-inkscape-font-specification:'Ubuntu Medium'">uma</tspan> – e preferencialmente apenas uma – maneira óbvia de se fazer isto. Embora aquela maneira possa não ser óbvia à primeira vista se você não for <tspan
   id="tspan5195"
   style="font-style:normal;font-variant:normal;font-weight:500;font-stretch:normal;font-size:12.69999981px;font-family:Ubuntu;-inkscape-font-specification:'Ubuntu Medium'">Holandês</tspan>. Agora é melhor que <tspan
   id="tspan5197"
   style="font-style:normal;font-variant:normal;font-weight:500;font-stretch:normal;font-size:12.69999981px;font-family:Ubuntu;-inkscape-font-specification:'Ubuntu Medium'">nunca</tspan>. Embora nunca, seja muitas vezes melhor que <tspan
   id="tspan5199"
   style="font-style:normal;font-variant:normal;font-weight:500;font-stretch:normal;font-size:12.69999981px;font-family:Ubuntu;-inkscape-font-specification:'Ubuntu Medium'">agora mesmo.</tspan> Se a <tspan
   id="tspan5201"
   style="font-style:normal;font-variant:normal;font-weight:500;font-stretch:normal;font-size:12.69999981px;font-family:Ubuntu;-inkscape-font-specification:'Ubuntu Medium'">implementação</tspan> é difícil de explicar, é uma má idéia. Se a implementação é <tspan
   id="tspan5203"
   style="font-style:normal;font-variant:normal;font-weight:500;font-stretch:normal;font-size:12.69999981px;font-family:Ubuntu;-inkscape-font-specification:'Ubuntu Medium'">fácil de explicar,</tspan> pode ser uma boa idéia. Namespaces são uma idéia <tspan
   id="tspan5205"
   style="font-style:normal;font-variant:normal;font-weight:500;font-stretch:normal;font-size:12.69999981px;font-family:Ubuntu;-inkscape-font-specification:'Ubuntu Medium'">estupenda</tspan> – <tspan
   id="tspan5207"
   style="font-style:normal;font-variant:normal;font-weight:500;font-stretch:normal;font-size:12.69999981px;font-family:Ubuntu;-inkscape-font-specification:'Ubuntu Medium'">vamos fazer mais deles!</tspan></tspan></textPath></text>
    <g
       id="g5764"
       transform="matrix(0.77896337,0,0,-0.77896337,143.10232,136.64854)"
       style="fill:#000000">
      <path
         d="M 0,0 0.02666667,-0.00213333 C 1.2586667,-0.00213333 1.9786667,1.1872 1.9786667,2.912 1.9786667,4.5536 1.2437333,5.7984 0,5.7984 -1.2288,5.7984 -1.9786667,4.5536 -1.9786667,2.8992 -1.9936,1.1872 -1.2309333,-0.00213333 0,0 M 34.773333,-34.491733 H 34.141867 V -36.8064 c 0.181333,-0.02027 0.397866,-0.02027 0.714666,-0.02027 0.839467,0 1.5808,0.328534 1.5808,1.178667 0,0.8256 -0.741333,1.156267 -1.664,1.156267 m 44.9472,12.6592 h 0.05867 c 2.6496,-0.0021 4.205867,2.5568 4.203733,6.276266 0,3.533867 -1.582933,6.215467 -4.264533,6.2165337 -2.6496,0 -4.266667,-2.6826667 -4.266667,-6.2474667 -0.03093,-3.688533 1.614934,-6.245333 4.2688,-6.245333 M 74.0672,-31.2576 c -0.379733,0 -0.635733,-0.0352 -0.766933,-0.0704 v -2.4224 c 0.157866,-0.03627 0.352,-0.04907 0.618666,-0.04907 0.9856,0 1.5936,0.498134 1.5936,1.338667 0,0.754133 -0.522666,1.2032 -1.445333,1.2032 m 26.87467,0.0256 c -0.45014,0 -0.704,-0.03947 -0.83947,-0.0608 v -2.2624 h 0.72853 c 0.92374,0 1.47307,0.461867 1.47307,1.1808 0,0.754133 -0.50987,1.1328 -1.36213,1.1424 m 6.54933,-7.019733 c -0.93653,0 -1.8624,0.257066 -2.32427,0.510933 l 0.37654,1.5328 c 0.50026,-0.254933 1.2672,-0.512 2.05653,-0.512 0.85227,0 1.3024,0.353067 1.3024,0.8896 0,0.509867 -0.3904,0.8032 -1.37707,1.156267 -1.3632,0.4736 -2.24853,1.2288 -2.24853,2.4192 0,1.400533 1.16693,2.4704 3.10187,2.4704 0.92586,0 1.60853,-0.193067 2.09173,-0.413867 l -0.41387,-1.496533 c -0.32746,0.157866 -0.91306,0.391466 -1.71093,0.391466 -0.8064,0 -1.1936,-0.3648 -1.1936,-0.7904 0,-0.523733 0.4608,-0.754133 1.51893,-1.1584 1.44747,-0.5344 2.12907,-1.290666 2.12907,-2.4448 0,-1.374933 -1.05813,-2.554666 -3.3088,-2.554666 m -6.38507,19.220266 C 99.9808,-16.8672 98.64,-14.0928 97.665067,-11.6288 l -0.123734,0.0032 c 0.154667,-2.7744 0.213334,-5.851733 0.213334,-9.170133 v -5.058134 l -5.0272,-0.0021 V -5.3152 H 99.2192 l 3.25973,-6.3136 c 1.12747,-2.0384 2.3168,-4.7808 3.22987,-7.189333 h 0.0928 c -0.304,2.711466 -0.42667,5.578666 -0.42667,8.625066 V -5.3152 l 5.02934,-0.00213 -0.004,-20.536534 -5.7856,-0.0021 z M 102.56,-38.1184 c -0.13547,0.2432 -0.32853,0.901333 -0.5728,1.9104 -0.21653,1.022933 -0.5728,1.300267 -1.3248,1.314133 h -0.56 V -38.1184 h -1.84 v 8.091733 c 0.5984,0.09493 1.485867,0.171734 2.47253,0.171734 1.21494,0 2.0672,-0.184534 2.65067,-0.6464 0.4896,-0.3904 0.75627,-0.962134 0.75627,-1.716267 0,-1.0464 -0.74347,-1.7632 -1.44854,-2.020267 v -0.03307 c 0.57387,-0.2336 0.88747,-0.7808 1.09654,-1.5328 0.25386,-0.928 0.50773,-1.9968 0.6688,-2.314667 z m -5.5616,0 h -5.234133 v 8.200533 h 5.060266 V -31.44 h -3.197866 v -1.7024 h 3.0176 v -1.508267 h -3.0176 V -36.5984 H 96.9984 Z m -6.222933,6.6432 h -2.235734 v -6.6432 h -1.8624 v 6.6432 h -2.2048 v 1.557333 h 6.302934 z m -7.013334,-6.6432 h -5.2288 v 8.200533 h 5.0624 V -31.44 h -3.2 v -1.7024 h 3.016534 v -1.508267 H 80.395733 V -36.5984 h 3.3664 z m -7.165866,3.761067 c -0.631467,-0.5952 -1.5712,-0.864 -2.664534,-0.864 -0.244266,0 -0.462933,0.01173 -0.631466,0.03627 V -38.1184 H 71.4624 v 8.091733 c 0.570667,0.09493 1.3728,0.171734 2.504533,0.171734 1.143467,0 1.960534,-0.2208 2.5056,-0.660267 0.525867,-0.4128 0.877867,-1.095467 0.877867,-1.898667 0,-0.801066 -0.2688,-1.482666 -0.754133,-1.943466 M 79.84,-4.9824 c 6.6144,0 9.963733,-4.9066667 9.963733,-10.391467 0,-6.613333 -3.9616,-10.818133 -10.2688,-10.818133 h -0.0288 c -6.369066,0 -9.873066,4.785067 -9.873066,10.485333 0,5.972267 3.9008,10.724267 10.206933,10.724267 m -14.08,-33.136 -0.120533,3.138133 c -0.0352,0.987734 -0.07253,2.180267 -0.07253,3.3696 H 65.5296 C 65.272533,-32.653867 64.935467,-33.824 64.616533,-34.784 L 63.6192,-37.982933 h -1.4464 l -0.878933,3.160533 c -0.264534,0.974933 -0.546134,2.141867 -0.7392,3.211733 h -0.0256 c -0.048,-1.105066 -0.0832,-2.370133 -0.146134,-3.392 L 60.237867,-38.1184 h -1.717334 l 0.523734,8.200533 h 2.4704 l 0.804266,-2.736 c 0.253867,-0.938666 0.509867,-1.973333 0.6912,-2.933333 h 0.03733 c 0.231466,0.9472 0.510933,2.032 0.779733,2.942933 l 0.874667,2.7264 h 2.423466 l 0.448,-8.200533 z m -8.6624,0 h -1.8624 v 8.200533 h 1.8624 z m -2.577067,12.266667 -5.5168,-0.0021 0.0021,20.5365337 5.514666,0.00213 v -7.6213327 h 6.6752 v 7.6191994 h 5.512534 V -25.853867 H 61.1936 l 0.0021,8.101334 -6.6752,0.0021 z M 54.247467,-31.4752 H 52.0064 v -6.6432 h -1.860267 v 6.6432 h -2.202666 v 1.557333 h 6.304 z m -7.770667,21.5242667 -5.333333,0.00107 V -25.853867 h -5.5168 l 0.0021,15.9040003 H 30.389333 L 30.3872,-5.3173333 46.4768,-5.3184 Z M 42.987733,-34.6976 v -3.4208 h -1.850666 v 3.357867 l -2.5888,4.842666 H 40.6624 l 0.8416,-1.9712 c 0.258133,-0.597333 0.4256,-1.035733 0.631467,-1.568 H 42.16 c 0.181333,0.5088 0.379733,0.983467 0.6208,1.568 l 0.827733,1.9712 h 2.078934 z m -5.453866,-2.762667 C 36.9376,-37.936 35.9392,-38.2016 34.3104,-38.2016 c -0.912,0 -1.5936,0.05973 -2.008533,0.122667 v 8.052266 c 0.485333,0.09493 1.473066,0.171734 2.395733,0.171734 1.133867,0 1.825067,-0.112 2.423467,-0.466134 0.570666,-0.301866 0.9856,-0.861866 0.9856,-1.6032 0,-0.7296 -0.427734,-1.4144 -1.352534,-1.754666 v -0.0224 c 0.9376,-0.256 1.630934,-0.961067 1.630934,-2.0192 0,-0.7424 -0.341334,-1.325867 -0.8512,-1.739734 m -14.336,11.6064 h -5.5168 l 0.0021,8.285867 -6.4608,12.2528 h 6.3072 l 1.738667,-4.6325333 C 19.8144,-11.381333 20.210133,-12.418133 20.6688,-13.758933 h 0.06293 c 0.395734,1.249066 0.791467,2.407466 1.307734,3.8079997 l 1.6768,4.6368 6.215466,-0.00107 -6.733866,-12.0405327 z M 8.9397333,-16.805333 C 7.2938667,-18.266667 4.8853333,-18.9408 2.112,-18.9408 c -0.5472,0.0021 -1.0037333,0.06293 -1.33866667,0.06293 v -6.976 l -5.45706663,0.0021 V -5.6224 c 1.4944,0.2410667 3.6586666,0.4533333 6.7648,0.4554667 C 5.04,-5.1658667 7.1712,-5.7130667 8.6037333,-6.8128 c 1.4005337,-1.0325333 2.3445337,-2.8341333 2.3445337,-4.936533 0.0021,-2.068267 -0.698667,-3.867734 -2.0085337,-5.056 m -18.7818666,-9.3216 h -9.4517337 l -5.7184,11.1456 c -1.842133,3.531733 -4.032,8.0575997 -5.623466,12.0874663 H -30.8352 c 0.247467,-4.5258666 0.347733,-9.5509333 0.347733,-14.9738663 v -8.2592 h -8.208 V 7.4058667 h 10.597334 l 5.322666,-10.2997334 c 1.84,-3.3333333 3.781334,-7.8101333 5.2736,-11.7397333 l 0.149334,-0.0021 c -0.497067,4.4288 -0.6976,9.1050663 -0.695467,14.07999967 L -18.050133,7.5392 h 8.2079997 z m -85.7471997,0 v 4.775466 L -80.7616,-0.20586667 v 0.19733334 h -30.6688 V 0.0416 h -22.3872 l -0.001,-5.3962667 h 14.1088 V -12.6496 h -14.1088 v -6.197333 l 13.54347,0.0021 V -26.2443 H -142.864 V 7.4410667 h 51.536 V 7.4048 h 22.206933 V 2.2826667 L -83.499733,-18.5152 v -0.1984 H -64.528 V 7.4048 h 21.790933 V 0.0416 l -12.7872,0.0010667 V -5.3312 h 12.040534 v -7.262933 h -12.0416 l 0.0011,-6.168534 13.482667,-0.0021 V -26.1269 Z m -53.468797,-0.117334 h -9.0464 v 13.291734 h -10.94507 l 0.001,-13.291734 h -9.04427 V 7.4410667 h 9.04427 v -12.496 l 10.94293,0.00107 0.001,12.4949334 h 9.0464 z m -41.92747,-0.0011 -9.0464,0.0011 v 26.08640033 h -8.59627 l -0.001,7.59893337 h 26.38826 L -182.24,-0.1568 h -8.74773 z M 0.05653333,7.8218667 C 3.1253333,7.8229333 4.6816,5.5413333 4.6837333,2.9994667 c 0,-3.07200003 -1.84,-5.0218667 -4.76906663,-5.0218667 H -0.10026667 C -3.056,-2.0234667 -4.6837333,0.19733333 -4.6837333,2.8416 c 0,2.7754667 1.8133333,4.9813333 4.74026663,4.9802667 M 6.0394667,7.6672 H 12.164267 V 5.5733333 H 8.6005333 v -1.7568 H 11.952 v -2.064 L 8.6005333,1.7536 V -1.8677333 H 6.0394667 Z M -48.914133,162.176 c -97.969067,0 -177.390937,-79.4208 -177.390937,-177.390933 0,-97.969067 79.42187,-177.389867 177.390937,-177.389867 97.970133,0 177.390933,79.4208 177.390933,177.389867 C 128.4768,82.7552 49.056,162.176 -48.914133,162.176 M 36.245333,-32.1568 c 0,0.619733 -0.474666,0.948267 -1.314133,0.948267 -0.402133,0 -0.6336,-0.02347 -0.789333,-0.04907 v -1.908267 h 0.605866 c 0.974934,0 1.4976,0.398934 1.4976,1.009067 M 2.3872,-9.3109333 c -0.7957333,0 -1.3418667,-0.061867 -1.61386667,-0.1237334 V -14.672 C 1.0752,-14.701867 1.4421333,-14.733867 2.0224,-14.733867 c 2.1333333,0 3.4730667,1.098667 3.4730667,2.862934 0,1.5232 -1.008,2.5599997 -3.1082667,2.5599997"
         style="fill:#000000;fill-opacity:1;fill-rule:nonzero;stroke:none;stroke-width:1.06666672"
         id="path5766"
         inkscape:connector-curvature="0" />
    </g>
    <path
       transform="matrix(-1.0111445,0,0,1.030952,4.1384299,12.101206)"
       style="fill:none;fill-rule:evenodd;stroke:none;stroke-width:0.41181368px;stroke-linecap:butt;stroke-linejoin:miter;stroke-opacity:1"
       d="M -68.148879,-90.890525 C -190.00621,-104.29031 -304.07353,-14.981878 -318.68432,107.05774 c -14.41412,120.39689 73.51004,233.84472 194.23948,248.2626 C -6.2374768,369.43702 105.13783,283.09826 119.25727,164.55572 133.074,48.554582 48.332595,-60.732367 -68.006445,-74.55077 -181.78407,-88.064936 -288.96626,-4.9332575 -302.48094,109.1851 -315.68982,220.72132 -234.18068,325.78176 -122.30079,338.98992 -13.024535,351.8907 89.896541,272.01737 102.79525,162.39439 115.38499,55.397359 37.161245,-45.366074 -70.185682,-57.952297 -174.88348,-70.227915 -273.47027,6.3319406 -285.74082,111.38294 c -11.9583,102.37773 62.9228,198.76813 165.65718,210.71967 C -20.047644,333.74025 74.125765,260.55337 85.754816,160.15713 97.068271,62.485503 25.591759,-29.449455 -72.443889,-40.75234 -167.72753,-51.737937 -257.40161,18.01138 -268.37447,113.66299 c -10.65387,92.87093 57.35065,180.26069 150.59371,190.89946 C -27.348425,314.88052 57.732441,248.6392 68.032808,157.83038 78.01078,69.86382 13.551984,-12.882363 -74.795655,-22.839776 -160.26786,-32.473107 -240.65225,30.182881 -250.26187,116.04102"
       id="path54358-6" />
    <text
       xml:space="preserve"
       style="font-style:normal;font-variant:normal;font-weight:normal;font-stretch:normal;font-size:10.58333302px;line-height:125%;font-family:Ubuntu;-inkscape-font-specification:Ubuntu;letter-spacing:0px;word-spacing:0px;fill:#000000;fill-opacity:1;stroke:none;stroke-width:0.26458332px;stroke-linecap:butt;stroke-linejoin:miter;stroke-opacity:1"
       id="text5127-0"
       y="682.88385"
       x="-628.08856"><tspan
         sodipodi:role="line"
         id="tspan5125-8"
         x="-628.08856"
         y="682.88385"
         style="font-style:normal;font-variant:normal;font-weight:normal;font-stretch:normal;font-size:12.69999981px;font-family:Ubuntu;-inkscape-font-specification:Ubuntu;stroke-width:0.26458332px"><tspan
   style="font-style:normal;font-variant:normal;font-weight:500;font-stretch:normal;font-size:12.69999981px;font-family:Ubuntu;-inkscape-font-specification:'Ubuntu Medium';stroke-width:0.26458332px"
   id="tspan5129-1">Bonito</tspan> é melhor que feio. <tspan
   style="font-style:normal;font-variant:normal;font-weight:500;font-stretch:normal;font-size:12.69999981px;font-family:Ubuntu;-inkscape-font-specification:'Ubuntu Medium';stroke-width:0.26458332px"
   id="tspan5171-2">Explícito</tspan> é melhor que implícito. <tspan
   style="font-style:normal;font-variant:normal;font-weight:500;font-stretch:normal;font-size:12.69999981px;font-family:Ubuntu;-inkscape-font-specification:'Ubuntu Medium';stroke-width:0.26458332px"
   id="tspan5173-2">Simples</tspan> é melhor que complexo. <tspan
   style="font-style:normal;font-variant:normal;font-weight:500;font-stretch:normal;font-size:12.69999981px;font-family:Ubuntu;-inkscape-font-specification:'Ubuntu Medium';stroke-width:0.26458332px"
   id="tspan5175-6">Complexo</tspan> é melhor que complicado. <tspan
   style="font-style:normal;font-variant:normal;font-weight:500;font-stretch:normal;font-size:12.69999981px;font-family:Ubuntu;-inkscape-font-specification:'Ubuntu Medium';stroke-width:0.26458332px"
   id="tspan5177-9">Plano</tspan> é melhor que aninhado. <tspan
   style="font-style:normal;font-variant:normal;font-weight:500;font-stretch:normal;font-size:12.69999981px;font-family:Ubuntu;-inkscape-font-specification:'Ubuntu Medium';stroke-width:0.26458332px"
   id="tspan5179-1">Esparso</tspan> é melhor que denso. <tspan
   style="font-style:normal;font-variant:normal;font-weight:500;font-stretch:normal;font-size:12.69999981px;font-family:Ubuntu;-inkscape-font-specification:'Ubuntu Medium';stroke-width:0.26458332px"
   id="tspan5181-0">Legibilidade</tspan> conta. Casos especiais não são especiais o bastante para se <tspan
   style="font-style:normal;font-variant:normal;font-weight:500;font-stretch:normal;font-size:12.69999981px;font-family:Ubuntu;-inkscape-font-specification:'Ubuntu Medium';stroke-width:0.26458332px"
   id="tspan5183-4">quebrar as regras.</tspan> Embora a <tspan
   style="font-style:normal;font-variant:normal;font-weight:500;font-stretch:normal;font-size:12.69999981px;font-family:Ubuntu;-inkscape-font-specification:'Ubuntu Medium';stroke-width:0.26458332px"
   id="tspan5185-2">práticidade</tspan> supere o purismo. <tspan
   style="font-style:normal;font-variant:normal;font-weight:500;font-stretch:normal;font-size:12.69999981px;font-family:Ubuntu;-inkscape-font-specification:'Ubuntu Medium';stroke-width:0.26458332px"
   id="tspan5187-7">Erros</tspan> nunca deveriam passar silenciosamente. A menos que <tspan
   style="font-style:normal;font-variant:normal;font-weight:500;font-stretch:normal;font-size:12.69999981px;font-family:Ubuntu;-inkscape-font-specification:'Ubuntu Medium';stroke-width:0.26458332px"
   id="tspan5189-4">explicitamente</tspan> silenciados. Ao encarar a ambiguidade, <tspan
   style="font-style:normal;font-variant:normal;font-weight:500;font-stretch:normal;font-size:12.69999981px;font-family:Ubuntu;-inkscape-font-specification:'Ubuntu Medium';stroke-width:0.26458332px"
   id="tspan5191-0">recuse a tentação de adivinhar.</tspan> Deveria haver <tspan
   style="font-style:normal;font-variant:normal;font-weight:500;font-stretch:normal;font-size:12.69999981px;font-family:Ubuntu;-inkscape-font-specification:'Ubuntu Medium';stroke-width:0.26458332px"
   id="tspan5193-3">uma</tspan> – e preferencialmente apenas uma – maneira óbvia de se fazer isto. Embora aquela maneira possa não ser óbvia à primeira vista se você não for <tspan
   style="font-style:normal;font-variant:normal;font-weight:500;font-stretch:normal;font-size:12.69999981px;font-family:Ubuntu;-inkscape-font-specification:'Ubuntu Medium';stroke-width:0.26458332px"
   id="tspan5195-2">Holandês</tspan>. Agora é melhor que <tspan
   style="font-style:normal;font-variant:normal;font-weight:500;font-stretch:normal;font-size:12.69999981px;font-family:Ubuntu;-inkscape-font-specification:'Ubuntu Medium';stroke-width:0.26458332px"
   id="tspan5197-8">nunca</tspan>. Embora nunca, seja muitas vezes melhor que <tspan
   style="font-style:normal;font-variant:normal;font-weight:500;font-stretch:normal;font-size:12.69999981px;font-family:Ubuntu;-inkscape-font-specification:'Ubuntu Medium';stroke-width:0.26458332px"
   id="tspan5199-0">agora mesmo.</tspan> Se a <tspan
   style="font-style:normal;font-variant:normal;font-weight:500;font-stretch:normal;font-size:12.69999981px;font-family:Ubuntu;-inkscape-font-specification:'Ubuntu Medium';stroke-width:0.26458332px"
   id="tspan5201-3">implementação</tspan> é difícil de explicar, é uma má idéia. Se a implementação é <tspan
   style="font-style:normal;font-variant:normal;font-weight:500;font-stretch:normal;font-size:12.69999981px;font-family:Ubuntu;-inkscape-font-specification:'Ubuntu Medium';stroke-width:0.26458332px"
   id="tspan5203-7">fácil de explicar,</tspan> pode ser uma boa idéia. Namespaces são uma idéia <tspan
   style="font-style:normal;font-variant:normal;font-weight:500;font-stretch:normal;font-size:12.69999981px;font-family:Ubuntu;-inkscape-font-specification:'Ubuntu Medium';stroke-width:0.26458332px"
   id="tspan5205-0">estupenda</tspan> – <tspan
   style="font-style:normal;font-variant:normal;font-weight:500;font-stretch:normal;font-size:12.69999981px;font-family:Ubuntu;-inkscape-font-specification:'Ubuntu Medium';stroke-width:0.26458332px"
   id="tspan5207-0">vamos fazer mais deles!</tspan></tspan></text>
    <path
       d="m -898.78904,1408.8668 h 877.5715 V 713.7002 h -877.5715 z"
       style="fill:#e5ff80;fill-opacity:1;fill-rule:nonzero;stroke:none;stroke-width:0.78016061"
       id="path3014-3"
       inkscape:connector-curvature="0" />
    <path
       sodipodi:type="spiral"
       style="fill:none;fill-rule:evenodd;stroke:#000000;stroke-width:0.41181368px;stroke-linecap:butt;stroke-linejoin:miter;stroke-opacity:1"
       id="path54358-6-5-4"
       sodipodi:cx="-95.693871"
       sodipodi:cy="136.33447"
       sodipodi:expansion="0.70999998"
       sodipodi:revolution="10.168813"
       sodipodi:radius="228.88846"
       sodipodi:argument="-21.360399"
       sodipodi:t0="0.58221054"
       d="M -250.26187,116.04102 C -240.65225,30.182881 -160.26786,-32.473107 -74.795655,-22.839776 13.551984,-12.882363 78.01078,69.86382 68.032808,157.83038 57.732441,248.6392 -27.348425,314.88052 -117.78076,304.56245 -211.02382,293.92368 -279.02834,206.53392 -268.37447,113.66299 -257.40161,18.01138 -167.72753,-51.737937 -72.443889,-40.75234 25.591759,-29.449455 97.068271,62.485503 85.754816,160.15713 74.125765,260.55337 -20.047644,333.74025 -120.08364,322.10261 -222.81802,310.15107 -297.69912,213.76067 -285.74082,111.38294 -273.47027,6.3319406 -174.88348,-70.227915 -70.185682,-57.952297 37.161245,-45.366074 115.38499,55.397359 102.79525,162.39439 89.896541,272.01737 -13.024535,351.8907 -122.30079,338.98992 -234.18068,325.78176 -315.68982,220.72132 -302.48094,109.1851 -288.96626,-4.9332575 -181.78407,-88.064936 -68.006445,-74.55077 48.332595,-60.732367 133.074,48.554582 119.25727,164.55572 105.13783,283.09826 -6.2374768,369.43702 -124.44484,355.32034 -245.17428,340.90246 -333.09844,227.45463 -318.68432,107.05774 -304.07353,-14.981878 -190.00621,-104.29031 -68.148879,-90.890525"
       transform="matrix(-1.0111445,0,0,1.030952,-363.74308,805.06536)" />
    <flowRoot
       transform="matrix(0.26458333,0,0,0.26458333,590.51546,870.3193)"
       xml:space="preserve"
       id="flowRoot55097"
       style="font-style:normal;font-weight:normal;font-size:40px;line-height:125%;font-family:sans-serif;letter-spacing:0px;word-spacing:0px;fill:#000000;fill-opacity:1;stroke:none;stroke-width:1px;stroke-linecap:butt;stroke-linejoin:miter;stroke-opacity:1"><flowRegion
         id="flowRegion55099"><rect
           id="rect55101"
           width="1607.7375"
           height="1823.5912"
           x="-4361.7324"
           y="-1311.4163" /></flowRegion><flowPara
         id="flowPara55103">Duplique a expiral e o texto.</flowPara><flowPara
         id="flowPara55109" /><flowPara
         id="flowPara55111">Selecione a expiral, clique no menu Caminho, e depois clique em &quot;Converter em Caminho&quot;. Ainda com a expiral selecionada, remova a cor da expiral clicando com o botão direito na opção de remover cor, e selecionando &quot;Aplicar ao Contorno&quot;</flowPara><flowPara
         id="flowPara55113">Segure Shift, selecione a espiral e o texto. Vá no Menu Texto e clique em &quot;Ajustar Texto ao Caminho&quot;.</flowPara><flowPara
         id="flowPara55115">Em seguida, vá no menu Caminho, e clique em &quot;Inverter&quot;</flowPara><flowPara
         id="flowPara55105" /><flowPara
         id="flowPara55107" /></flowRoot>    <g
       id="g55205"
       transform="translate(-20.855071,-26.893996)">
      <g
         style="fill:#000000"
         transform="matrix(0.76007956,0,0,-0.76007956,86.067705,439.97881)"
         id="g5768">
        <path
           inkscape:connector-curvature="0"
           id="path5770"
           style="fill:#000000;fill-opacity:1;fill-rule:nonzero;stroke:none;stroke-width:1.06666672"
           d="m 0,0 c 0,-3.2970667 -2.672,-5.9690667 -5.9690667,-5.9690667 -3.2970666,0 -5.9690663,2.672 -5.9690663,5.9690667 0,3.2970667 2.6719997,5.9701333 5.9690663,5.9701333 C -2.672,5.9701333 0,3.2970667 0,0" />
      </g>
      <g
         style="fill:#000000"
         transform="matrix(0.76007956,0,0,-0.76007956,122.20679,439.97881)"
         id="g5772">
        <path
           inkscape:connector-curvature="0"
           id="path5774"
           style="fill:#000000;fill-opacity:1;fill-rule:nonzero;stroke:none;stroke-width:1.06666672"
           d="m 0,0 c 0,-3.2970667 -2.672,-5.9690667 -5.9690667,-5.9690667 -3.2970666,0 -5.9690663,2.672 -5.9690663,5.9690667 0,3.2970667 2.6719997,5.9701333 5.9690663,5.9701333 C -2.672,5.9701333 0,3.2970667 0,0" />
      </g>
      <g
         style="fill:#000000"
         transform="matrix(0.76007956,0,0,-0.76007956,158.34611,439.97881)"
         id="g5776">
        <path
           inkscape:connector-curvature="0"
           id="path5778"
           style="fill:#000000;fill-opacity:1;fill-rule:nonzero;stroke:none;stroke-width:1.06666672"
           d="m 0,0 c 0,-3.2970667 -2.672,-5.9690667 -5.9701333,-5.9690667 -3.2970667,0 -5.9679997,2.672 -5.9679997,5.9690667 0,3.2970667 2.670933,5.9701333 5.9679997,5.9701333 C -2.672,5.9701333 0,3.2970667 0,0" />
      </g>
      <path
         inkscape:connector-curvature="0"
         id="path4629"
         d="m 117.6697,431.77966 c -4.5256,0 -8.18846,3.66297 -8.18846,8.1886 0,4.52553 3.66286,8.20887 8.18846,8.20887 4.5256,0 8.18869,-3.68334 8.18869,-8.20887 0,-4.52563 -3.66309,-8.1886 -8.18869,-8.1886 z m 0,2.43227 c 3.1876,0 5.77674,2.56862 5.77674,5.75633 0,3.18764 -2.58914,5.7766 -5.77674,5.7766 -3.18759,0 -5.77651,-2.58896 -5.77651,-5.7766 0,-3.18771 2.58892,-5.75633 5.77651,-5.75633 z"
         style="fill:#000000;fill-opacity:1;fill-rule:nonzero;stroke:none;stroke-width:0.81075156" />
    </g>
    <text
       xml:space="preserve"
       style="font-style:normal;font-variant:normal;font-weight:normal;font-stretch:normal;font-size:10.58333302px;line-height:125%;font-family:Ubuntu;-inkscape-font-specification:Ubuntu;letter-spacing:0.15875px;word-spacing:0.09260417px;fill:#000000;fill-opacity:1;stroke:none;stroke-width:0.26458332px;stroke-linecap:butt;stroke-linejoin:miter;stroke-opacity:1"
       id="text5127-0-2"
       transform="translate(-0.22290345,4.0604736)"><textPath
         xlink:href="#path54358-6-5-4-2"
         id="textPath55664"
         style="letter-spacing:0.21166667px"><tspan
   style="font-style:normal;font-variant:normal;font-weight:normal;font-stretch:normal;font-size:12.69999981px;font-family:Ubuntu;-inkscape-font-specification:Ubuntu;letter-spacing:0.21166667px;word-spacing:0.09260417px;stroke-width:0.26458332px"
   id="tspan5125-8-7"
   dx="0 0 0 0 0 0 0 0 0 0 0 0 0 0 0 0 0 0 0 0 0 0 0 0 0 0 0 0 0 0 0 0 0 0 0 0 0 0 0 0 0 0 0 0 0 0 0 0 0 0 0 0 0 0 0 0 0 0 0 0 0 0 0 0 0 0 0 0 0 0 0 0 0 0 0 0 0 0 0 0 0 0 0 0 0 0 0 0 0 0 0 0 0 0 0 0 0 0 0 0 0 0 0 0 0 0 0 0 0 0 0 0 0 0 0 0 0 0 0 0 0 0 0 0 0 0 0 0 0 0 0 0 0 0 0 0 0 0 0 0 0 0 0 0 0 0 0 0 0 0 0 0 0 0 0 0 0 0 0 0 0 0 0 0 0 0 0 0 0 0 0 0 0 0 0 0 0 0 0 0 0 0 0 0 0 0 0 0 0 0 0 0 0 0 0 0 0 0 0 0 0 0 0 0 0 0 0 0 0 0 0 0 0 0 0 0 0 0 0 0 0 0 0 0 0 0 0 0 0 0 0 0 0 0 0 0 0 0 0 0 0 0 0 0 0 0 0 0 0 0 0 0 0 0 0 0 0 0 0 0 0 0 0 0 0 0 0 0 0 0 0 0 0 0 0 0 0 0 0 0 0 0 0 0 0 0 0 0 0 0 0 0 0 0 0 0 0 0 0 0 0 0 0 0 0 0 0 0 0 0 0 0 0 0 0 0 0 0 0 0 0 0 0 0 0 0 0 0 0 0 0 0 0 0 0 0 0 0 0 0 0 0 0 0 0 0 0 0 0 0 0 0 0 0 0 0 0 0 0 0 0 0 0 0 0 0 0 0 0 0 0 0 0 0 0 0 0 0 0 0 0 0 0 0 0 0 0 0 0 0 0 0 0 0 0 0 0 0 0 0 0 0 0 0 0 0 0 0 0 0 0 0 0 0 0 0 0 0 0 0 0 0 0 0 0 0 0 0 0 0 0 0 0 0 0 0 0 0 0 0 0 0 0 0 0 0 0 0 0 0 0 0 0 0 0 0 0 0 0 0 0 0 0 0 0 0 0 0 0 0 0 0 0 0 0 0 0 0 0 0 0 0 0 0 0 0 0 0 0 0 0 0 0 0 0 0 0 0 0 0 0 0 0 0 0 0 0 0 0 0 0 0 0 0 0 0 0 0 0 0 0 0 0 0 0 0 0 0 0 0 0 0 0 0 0 0 0 0 0 0 0 0 0 0 0 0 0 0 0 0 0 0 0 0 0 0 0 0 0 0 0 0 0 0 0 0 0 0 0 0 0 0 0 0 0 0 0 0 0 0 0 0 0 0 0 0 0 0 0 0 0 0 0 0 0 0 0 0 0 0 0 0 0 0 0 0 0 0 0 0 0 0 0 0 0 0 0 0 0 0 0 0 0 0 0 0 0 0 0 0 0 0 0 0 0 0 0 0 0 0 0 0 0 0 0 0 0 0 0 0 0 0 0 0 0 0 0 0 0 0 0 0 0 0 0 0 0 0 0 0 0 0 0 0 0 0 0 0 0 0 0 0 0 0 0 0 0 0 0 0 0 0 0 0 0 0 0 0 0 0 0 0 0 0 0 0 0 0 0 0 0 0 0 0 0 0 0 0 0 0 0 0 0 0 0 0 0 0 0 0 0 0 0 0 0 0 0 0 0 0 0 0 0 0 0 0 0 0 0 0 0 0 0 0 0 0 0 0.1"><tspan
   id="tspan5129-1-4"
   style="font-style:normal;font-variant:normal;font-weight:500;font-stretch:normal;font-size:12.69999981px;font-family:Ubuntu;-inkscape-font-specification:'Ubuntu Medium';letter-spacing:0.21166667px;word-spacing:0.09260417px;stroke-width:0.26458332px">Bonito</tspan> é melhor que feio. <tspan
   id="tspan5171-2-2"
   style="font-style:normal;font-variant:normal;font-weight:500;font-stretch:normal;font-size:12.69999981px;font-family:Ubuntu;-inkscape-font-specification:'Ubuntu Medium';letter-spacing:0.21166667px;word-spacing:0.09260417px;stroke-width:0.26458332px">Explícito</tspan> é melhor que implícito. <tspan
   id="tspan5173-2-5"
   style="font-style:normal;font-variant:normal;font-weight:500;font-stretch:normal;font-size:12.69999981px;font-family:Ubuntu;-inkscape-font-specification:'Ubuntu Medium';letter-spacing:0.21166667px;word-spacing:0.09260417px;stroke-width:0.26458332px">Simples</tspan> é melhor que complexo. <tspan
   id="tspan5175-6-2"
   style="font-style:normal;font-variant:normal;font-weight:500;font-stretch:normal;font-size:12.69999981px;font-family:Ubuntu;-inkscape-font-specification:'Ubuntu Medium';letter-spacing:0.21166667px;word-spacing:0.09260417px;stroke-width:0.26458332px">Complexo</tspan> é melhor que complicado. <tspan
   id="tspan5177-9-4"
   style="font-style:normal;font-variant:normal;font-weight:500;font-stretch:normal;font-size:12.69999981px;font-family:Ubuntu;-inkscape-font-specification:'Ubuntu Medium';letter-spacing:0.21166667px;word-spacing:0.09260417px;stroke-width:0.26458332px">Plano</tspan> é melhor que aninhado. <tspan
   id="tspan5179-1-4"
   style="font-style:normal;font-variant:normal;font-weight:500;font-stretch:normal;font-size:12.69999981px;font-family:Ubuntu;-inkscape-font-specification:'Ubuntu Medium';letter-spacing:0.21166667px;word-spacing:0.09260417px;stroke-width:0.26458332px">Esparso</tspan> é melhor que denso. <tspan
   id="tspan5181-0-3"
   style="font-style:normal;font-variant:normal;font-weight:500;font-stretch:normal;font-size:12.69999981px;font-family:Ubuntu;-inkscape-font-specification:'Ubuntu Medium';letter-spacing:0.21166667px;word-spacing:0.09260417px;stroke-width:0.26458332px">Legibilidade</tspan> conta. Casos especiais não são especiais o bastante para se <tspan
   id="tspan5183-4-8"
   style="font-style:normal;font-variant:normal;font-weight:500;font-stretch:normal;font-size:12.69999981px;font-family:Ubuntu;-inkscape-font-specification:'Ubuntu Medium';letter-spacing:0.21166667px;word-spacing:0.09260417px;stroke-width:0.26458332px">quebrar as regras.</tspan> Embora a <tspan
   id="tspan5185-2-6"
   style="font-style:normal;font-variant:normal;font-weight:500;font-stretch:normal;font-size:12.69999981px;font-family:Ubuntu;-inkscape-font-specification:'Ubuntu Medium';letter-spacing:0.21166667px;word-spacing:0.09260417px;stroke-width:0.26458332px">práticidade</tspan> supere o purismo. <tspan
   id="tspan5187-7-0"
   style="font-style:normal;font-variant:normal;font-weight:500;font-stretch:normal;font-size:12.69999981px;font-family:Ubuntu;-inkscape-font-specification:'Ubuntu Medium';letter-spacing:0.21166667px;word-spacing:0.09260417px;stroke-width:0.26458332px">Erros</tspan> nunca deveriam passar silenciosamente. A menos que <tspan
   id="tspan5189-4-8"
   style="font-style:normal;font-variant:normal;font-weight:500;font-stretch:normal;font-size:12.69999981px;font-family:Ubuntu;-inkscape-font-specification:'Ubuntu Medium';letter-spacing:0.21166667px;word-spacing:0.09260417px;stroke-width:0.26458332px">explicitamente</tspan> silenciados. Ao encarar a ambiguidade, <tspan
   id="tspan5191-0-9"
   style="font-style:normal;font-variant:normal;font-weight:500;font-stretch:normal;font-size:12.69999981px;font-family:Ubuntu;-inkscape-font-specification:'Ubuntu Medium';letter-spacing:0.21166667px;word-spacing:0.09260417px;stroke-width:0.26458332px">recuse a tentação de adivinhar.</tspan> Deveria haver <tspan
   id="tspan5193-3-2"
   style="font-style:normal;font-variant:normal;font-weight:500;font-stretch:normal;font-size:12.69999981px;font-family:Ubuntu;-inkscape-font-specification:'Ubuntu Medium';letter-spacing:0.21166667px;word-spacing:0.09260417px;stroke-width:0.26458332px">uma</tspan> – e preferencialmente apenas uma – maneira óbvia de se fazer isto. Embora aquela maneira possa não ser óbvia à primeira vista se você não for <tspan
   id="tspan5195-2-2"
   style="font-style:normal;font-variant:normal;font-weight:500;font-stretch:normal;font-size:12.69999981px;font-family:Ubuntu;-inkscape-font-specification:'Ubuntu Medium';letter-spacing:0.21166667px;word-spacing:0.09260417px;stroke-width:0.26458332px">Holandês</tspan>. Agora é melhor que <tspan
   id="tspan5197-8-3"
   style="font-style:normal;font-variant:normal;font-weight:500;font-stretch:normal;font-size:12.69999981px;font-family:Ubuntu;-inkscape-font-specification:'Ubuntu Medium';letter-spacing:0.21166667px;word-spacing:0.09260417px;stroke-width:0.26458332px">nunca</tspan>. Embora nunca, seja muitas vezes melhor que <tspan
   id="tspan5199-0-1"
   style="font-style:normal;font-variant:normal;font-weight:500;font-stretch:normal;font-size:12.69999981px;font-family:Ubuntu;-inkscape-font-specification:'Ubuntu Medium';letter-spacing:0.21166667px;word-spacing:0.09260417px;stroke-width:0.26458332px">agora mesmo.</tspan> Se a <tspan
   id="tspan5201-3-8"
   style="font-style:normal;font-variant:normal;font-weight:500;font-stretch:normal;font-size:12.69999981px;font-family:Ubuntu;-inkscape-font-specification:'Ubuntu Medium';letter-spacing:0.21166667px;word-spacing:0.09260417px;stroke-width:0.26458332px">implementação</tspan> é difícil de explicar, é uma má idéia. Se a implementação é <tspan
   id="tspan5203-7-3"
   style="font-style:normal;font-variant:normal;font-weight:500;font-stretch:normal;font-size:12.69999981px;font-family:Ubuntu;-inkscape-font-specification:'Ubuntu Medium';letter-spacing:0.21166667px;word-spacing:0.09260417px;stroke-width:0.26458332px">fácil de explicar,</tspan> pode ser uma boa idéia. Namespaces são uma idéia <tspan
   id="tspan5205-0-4"
   style="font-style:normal;font-variant:normal;font-weight:500;font-stretch:normal;font-size:12.69999981px;font-family:Ubuntu;-inkscape-font-specification:'Ubuntu Medium';letter-spacing:0.21166667px;word-spacing:0.09260417px;stroke-width:0.26458332px">estupenda</tspan> – <tspan
   id="tspan5207-0-2"
   style="font-style:normal;font-variant:normal;font-weight:500;font-stretch:normal;font-size:12.69999981px;font-family:Ubuntu;-inkscape-font-specification:'Ubuntu Medium';letter-spacing:0.21166667px;word-spacing:0.09260417px;stroke-width:0.26458332px">vamos fazer mais deles!</tspan></tspan></textPath></text>
    <path
       style="fill:none;fill-rule:evenodd;stroke:none;stroke-width:0.41181368px;stroke-linecap:butt;stroke-linejoin:miter;stroke-opacity:1"
       d="m -68.148879,-90.890525 c -13.829334,-1.56673 -27.80046,-1.868479 -41.684451,-0.898493 -123.32172,8.615706 -219.81063,118.536049 -211.15424,242.087558 8.53145,121.7683 117.07918,217.03718 239.080139,208.46384 C 38.287369,350.31597 132.32041,243.15843 123.83084,122.72798 115.47028,4.1275501 9.7211834,-88.653212 -109.11801,-80.24813 -226.10234,-71.974237 -317.6137,32.347414 -309.29384,149.57374 -301.10747,264.91933 -198.23305,355.14345 -82.642087,346.90957 31.041146,338.81159 119.95941,237.40503 111.81227,123.47291 103.80356,11.476703 3.8863993,-76.116255 -108.36236,-68.056625 -218.64573,-60.138113 -304.89305,38.267133 -296.92171,148.8069 -289.09433,257.35042 -192.22457,342.23079 -83.42064,334.34854 23.354679,326.61324 106.84577,231.30366 99.053385,124.26372 91.411159,19.286382 -2.3122959,-62.791936 -107.55868,-55.090232 c -103.14803,7.54815 -183.78887,99.658214 -176.17865,203.079942 7.45305,101.28569 97.921,180.463 199.485282,172.94505 C 15.13641,313.57787 92.822677,224.78235 85.397792,125.11012 78.138128,27.655819 -8.9529083,-48.510276 -106.69646,-41.17923 c -95.48097,7.161347 -170.09599,92.513933 -162.85954,188.28996 7.06192,93.466 90.63998,166.49709 184.407197,159.35594 C 6.2578157,299.50529 77.669938,217.74018 70.624761,126.02578 63.765069,36.726012 -16.146081,-33.02968 -105.76065,-26.081079"
       id="path54358-6-5-4-2"
       transform="matrix(-0.87423298,0,0,0.8913585,18.816355,25.29055)" />
    <text
       xml:space="preserve"
       style="font-style:normal;font-variant:normal;font-weight:normal;font-stretch:normal;font-size:29.42107582px;line-height:125%;font-family:Ubuntu;-inkscape-font-specification:Ubuntu;letter-spacing:0px;word-spacing:0px;fill:#000000;fill-opacity:1;stroke:none;stroke-width:0.73552686px;stroke-linecap:butt;stroke-linejoin:miter;stroke-opacity:1"
       id="text55209"><textPath
         xlink:href="#path55689"
         id="textPath55695"><tspan
   style="stroke-width:0.73552686px"
   id="tspan55207">import this</tspan></textPath></text>
    <path
       inkscape:connector-curvature="0"
       style="fill:none;stroke:none;stroke-width:0.26458332"
       d="M -103.46164,41.737898 A 244.96922,244.96922 0 0 1 226.24272,-64.63349 244.96922,244.96922 0 0 1 332.61411,265.07087 244.96922,244.96922 0 0 1 2.9097494,371.44226 244.96922,244.96922 0 0 1 -103.46164,41.737898 Z"
       id="path55689" />
  </g>
</svg>
